<?xml version="1.0" encoding="UTF-8"?>
<svg xmlns="http://www.w3.org/2000/svg" viewBox="0 0 1095 1095" width="1095" height="1095">
<path d="M125.96 0.17C406.94 0.17 687.92 0.17 968.9 0.17C972.91 1.55 978.11 1.4 982.46 2.11C991.16 3.53 999.87 6.31 1008.11 9.44C1040.61 21.8 1068.31 48.19 1082.6 79.85C1086.57 88.64 1089.91 98.11 1091.92 107.53C1093.11 113.13 1092.92 119.81 1094.83 125.07C1094.83 406.38 1094.83 687.7 1094.83 969.01C1093.82 975.33 1092.81 981.66 1091.81 987.98C1087.46 982.57 1084.35 975.7 1080.82 969.68C1074.65 959.17 1068.53 948.63 1062.4 938.09C1041.11 901.43 1020 864.64 998.32 828.2C929.66 712.8 863.81 595.72 795.35 480.18C767.39 432.99 740.16 385.37 712.45 338.05C704.57 324.6 696.62 311.18 688.88 297.65C685.87 292.41 680.87 286.6 680.36 280.5C558.07 280.32 435.79 280.14 313.5 279.97C311.43 289.85 312.97 308.61 312.97 319.5C312.97 345.83 312.97 372.17 312.97 398.5C312.97 481.83 312.97 565.17 312.97 648.5C312.97 685.5 312.97 722.5 312.97 759.5C312.97 770.83 312.97 782.17 312.97 793.5C312.97 798.29 311.88 804.64 313.32 809.22C314.28 812.24 316.87 815.28 318.45 818.04C323.03 826.09 327.8 834.04 332.45 842.05C345.07 863.74 357.84 885.35 370.41 907.07C393.61 947.15 417.06 987.09 440.4 1027.1C453.56 1049.64 466.03 1072.75 479.94 1094.83C361.96 1094.83 243.97 1094.83 125.99 1094.83C121.9 1093.52 116.88 1093.6 112.53 1092.89C103.81 1091.47 95.14 1088.69 86.86 1085.58C54.38 1073.35 26.65 1046.7 12.41 1015.13C7.85 1005.02 4.36 994.16 2.23 983.33C1.33 978.73 1.7 973.43 0.17 969.08C0.17 688.09 0.17 407.1 0.17 126.1C1.56 122.09 1.41 116.9 2.12 112.54C3.56 103.84 6.33 95.15 9.45 86.89C21.72 54.38 48.28 26.7 79.88 12.42C89.97 7.86 100.85 4.37 111.67 2.23C116.29 1.32 121.59 1.69 125.96 0.17Z" fill="#000000" fill-rule="evenodd" stroke="#000000" stroke-width="0.25" stroke-linejoin="round"/>
<path d="M1091.81 987.98C1090.5 991.6 1089.74 995.56 1088.81 999.31C1087.16 1006 1083.83 1013.14 1080.81 1019.31C1067.18 1047.23 1039.47 1073.7 1010.31 1084.81C1001.51 1088.17 992.47 1091.05 983.31 1092.81C979.13 1093.62 973.64 1092.93 970 1094.83C806.65 1094.83 643.29 1094.83 479.94 1094.83C466.03 1072.75 453.56 1049.64 440.4 1027.1C417.06 987.09 393.61 947.15 370.41 907.07C357.84 885.35 345.07 863.74 332.45 842.05C327.8 834.04 323.03 826.09 318.45 818.04C316.87 815.28 314.28 812.24 313.32 809.22C311.88 804.64 312.97 798.29 312.97 793.5C312.97 782.17 312.97 770.83 312.97 759.5C312.97 722.5 312.97 685.5 312.97 648.5C312.97 565.17 312.97 481.83 312.97 398.5C312.97 372.17 312.97 345.83 312.97 319.5C312.97 308.61 311.43 289.85 313.5 279.97C435.79 280.14 558.07 280.32 680.36 280.5C680.87 286.6 685.87 292.41 688.88 297.65C696.62 311.18 704.57 324.6 712.45 338.05C740.16 385.37 767.39 432.99 795.35 480.18C863.81 595.72 929.66 712.8 998.32 828.2C1020 864.64 1041.11 901.43 1062.4 938.09C1068.53 948.63 1074.65 959.17 1080.82 969.68C1084.35 975.7 1087.46 982.57 1091.81 987.98Z" fill="#ffffff" fill-rule="evenodd" stroke="#ffffff" stroke-width="0.25" stroke-linejoin="round"/>
</svg>